<svg id="Ebene_1" data-name="Ebene 1" xmlns="http://www.w3.org/2000/svg" width="95.75" height="67.85" viewBox="0 0 95.75 67.85">
  <defs>
    <style>
      .cls-1 {
        fill: #91979c;
      }
    </style>
  </defs>
  <path class="cls-1" d="M91.42,52.81l-1-5.55a4.51,4.51,0,0,1,1.8-.84c1.25-.22,1.57.41,1.89,2.22l.63,3.58,1-.17-.64-3.61c-.43-2.44-1-3.3-2.86-3a5.24,5.24,0,0,0-2,1l0-.44-1,.18L90.41,53Zm-6.11.3c-1.59.28-2-.48-2.33-2.42s0-2.66,1.39-2.92,2,.36,2.3,2.27.24,2.8-1.36,3.07m-1.1-6.22c-2.12.37-2.67,1.62-2.26,4S83.21,54.4,85.47,54s2.67-1.65,2.23-4.14-1.35-3.35-3.49-3M78,46.53l1-.18-.21-1.19-1,.18Zm1.48,8.39,1-.18L79.26,47.9l-1,.18ZM76.6,49.29l-.16-.89-2.13.38-.37-2.1-1,.18L73.31,49l-1,.17.16.89,1-.17.64,3.6c.35,2,.91,2.42,2.29,2.18a12.85,12.85,0,0,0,1.34-.4l-.21-.83s-.81.22-1.18.29c-.88.15-1-.25-1.3-1.74l-.58-3.28Zm-6.46,3.76.4,2.26a6.93,6.93,0,0,1-2,.8c-.69.12-1.1-.29-1.24-1.08a1.1,1.1,0,0,1,.7-1.39h.21Zm.77-1.55a1.94,1.94,0,0,0-2-1.92,2,2,0,0,0-.59.1,16.62,16.62,0,0,0-2.58.77l.18.77s1.56-.46,2.5-.63,1.27.13,1.44,1.09l.1.59-2.07.57c-1.36.39-1.93,1.08-1.69,2.39s1,2,2.26,1.77a7,7,0,0,0,2.32-1,2.06,2.06,0,0,0,1.69.27l-.1-.82c-.44,0-.79-.07-.89-.46Zm-9-.67c-2,.35-2.63,1.45-2.19,3.92.47,2.69,1.28,3.57,3.41,3.2.62-.14,1.24-.32,1.84-.52l-.19-.84s-1.06.31-1.57.4c-1.66.29-2.1-.39-2.46-2.42-.32-1.84,0-2.59,1.52-2.87.51-.09,1.6-.15,1.6-.15l-.1-.84a16.57,16.57,0,0,0-1.86.11m-6.17-.36,1-.18-.2-1.18-1,.18Zm1.48,8.39,1-.18L57,51.83,56,52ZM50.54,60l-1-5.55a4.45,4.45,0,0,1,1.8-.84c1.25-.22,1.56.41,1.88,2.22l.64,3.58,1-.17-.64-3.62c-.43-2.43-1-3.29-2.86-3a5,5,0,0,0-2,1l-.09-.48-1,.18,1.21,6.84ZM45,54l1,5.56a4.11,4.11,0,0,1-1.75.83c-1.25.22-1.52-.37-1.85-2.26l-.63-3.56-1,.18.63,3.57c.44,2.52,1,3.34,2.87,3a4.51,4.51,0,0,0,1.88-1l.08.48,1-.18L46,53.77ZM31.33,63.41l-1-5.56A4,4,0,0,1,32.06,57c1.22-.22,1.52.39,1.86,2.28l.62,3.53,1-.17-.62-3.56a8.09,8.09,0,0,0-.53-2,4.45,4.45,0,0,1,1.8-.84c1.21-.21,1.53.42,1.85,2.23l.63,3.58,1-.17L39,58.32c-.44-2.47-1-3.28-2.86-3a5.56,5.56,0,0,0-2.27,1.12A1.87,1.87,0,0,0,32,56.09a4.51,4.51,0,0,0-1.85,1l-.08-.48-1,.17,1.21,6.85ZM19.66,65.47l-1-5.56a3.89,3.89,0,0,1,1.71-.82c1.22-.22,1.52.39,1.86,2.28l.62,3.53,1-.18-.62-3.55a8.09,8.09,0,0,0-.53-2,4.45,4.45,0,0,1,1.8-.84c1.21-.22,1.53.42,1.85,2.23L27,64.17,28,64l-.64-3.61c-.43-2.48-1-3.29-2.86-3a5.54,5.54,0,0,0-2.27,1.11,1.91,1.91,0,0,0-1.86-.39,4.74,4.74,0,0,0-1.86,1l-.08-.48-1,.17,1.2,6.84Zm-6.11.3c-1.59.28-2-.49-2.33-2.43s0-2.66,1.38-2.91,2,.36,2.3,2.26.25,2.8-1.35,3.08m-1.1-6.23c-2.12.37-2.67,1.63-2.26,4s1.26,3.53,3.52,3.14,2.66-1.66,2.23-4.15-1.35-3.35-3.49-3m-6.3,1.11C4.15,61,3.53,62.1,4,64.58c.47,2.68,1.27,3.57,3.41,3.19a16.59,16.59,0,0,0,1.83-.52L9,66.41a15.51,15.51,0,0,1-1.56.4c-1.66.3-2.1-.39-2.46-2.41-.32-1.84,0-2.59,1.52-2.87.51-.09,1.6-.15,1.6-.15L8,60.54a16.57,16.57,0,0,0-1.86.11"/>
  <path class="cls-1" d="M62.57,32.28a.09.09,0,0,0,.08-.09h0L59.92,16.68a.11.11,0,0,0-.09-.08h0L57.5,17a.09.09,0,0,0-.08.08h0L60.15,32.6a.09.09,0,0,0,.08.08h0Zm6.84-21.36,4.13,23.46q.69,3.87-4.41,4.77L56.44,41.39c-3.39.6-5.32-.39-5.77-3L46.53,15q-.7-4,4.4-4.86L63.61,7.85q5.1-.9,5.8,3.07M87.23,3.69,86.58,0,41.5,8l6.83,38.73,45.08-8L88.78,12.47l-3.63.64,4,22.52L79,37.43,73.41,6.13l5.09-.9Z"/>
  <path class="cls-1" d="M16.4,48.45l-5.52-31.3L.69,18.94l4,22.53L0,42.29l1.55,8.78,4.66-.82Zm16-11a.11.11,0,0,1,0,.11h0L30,38a.07.07,0,0,1-.1,0v0h0l-.76-4.31,2.4-.42a.08.08,0,0,1,.11,0h0Zm10.9,2.22-2.08-11.8c-.46-2.58-2.38-3.57-5.78-3l-7.59,1.34-.67-3.82a.1.1,0,0,1,.05-.12h0l2.3-.41a.11.11,0,0,1,.11.06h0L30,23.84,40.18,22l-1-5.78q-.7-4-5.79-3.07L20.68,15.42q-5.1.9-4.4,4.87l4.14,23.46c.45,2.58,2.37,3.58,5.78,3l12.68-2.24q5.1-.9,4.42-4.76"/>
</svg>
