<svg id="Ebene_1" data-name="Ebene 1" xmlns="http://www.w3.org/2000/svg" width="93.41" height="51.07" viewBox="0 0 93.41 51.07">
  <defs>
    <style>
      .cls-1 {
        fill: #91979c;
      }
    </style>
  </defs>
  <path class="cls-1" d="M62.57,32.28a.09.09,0,0,0,.08-.09h0L59.92,16.68a.11.11,0,0,0-.09-.08h0L57.5,17a.09.09,0,0,0-.08.08h0L60.15,32.6a.09.09,0,0,0,.08.08h0Zm6.84-21.36,4.13,23.46q.69,3.87-4.41,4.77L56.44,41.39c-3.39.6-5.32-.39-5.77-3L46.53,15q-.7-4,4.4-4.86L63.61,7.85q5.1-.9,5.8,3.07M87.23,3.69,86.58,0,41.5,8l6.83,38.73,45.08-8L88.78,12.47l-3.63.64,4,22.52L79,37.43,73.41,6.13l5.09-.9Z"/>
  <path class="cls-1" d="M16.4,48.45l-5.52-31.3L.69,18.94l4,22.53L0,42.29l1.55,8.78,4.66-.82Zm16-11a.11.11,0,0,1,0,.11h0L30,38a.07.07,0,0,1-.1,0v0h0l-.76-4.31,2.4-.42a.08.08,0,0,1,.11,0h0Zm10.9,2.22-2.08-11.8c-.46-2.58-2.38-3.57-5.78-3l-7.59,1.34-.67-3.82a.1.1,0,0,1,.05-.12h0l2.3-.41a.11.11,0,0,1,.11.06h0L30,23.84,40.18,22l-1-5.78q-.7-4-5.79-3.07L20.68,15.42q-5.1.9-4.4,4.87l4.14,23.46c.45,2.58,2.37,3.58,5.78,3l12.68-2.24q5.1-.9,4.42-4.76"/>
</svg>
